<svg xmlns="http://www.w3.org/2000/svg" xmlns:xlink="http://www.w3.org/1999/xlink" fill="none" version="1.1" width="18" height="18" viewBox="0 0 18 18"><defs><clipPath id="master_svg0_16_7283"><rect x="0" y="0" width="18" height="18" rx="0"/></clipPath></defs><g clip-path="url(#master_svg0_16_7283)"><g><path d="M5.151588134765625,1.5596923828125L13.706988134765625,11.8079923828125C14.145288134765625,12.3326923828125,14.111088134765625,13.1057923828125,13.626888134765625,13.5899923828125L1.596588134765625,1.5596923828125L5.151588134765625,1.5596923828125Z" fill="#35D9FE" fill-opacity="1" style="mix-blend-mode:passthrough"/></g><g><path d="M12.772788134765625,14.4440923828125L1.596588134765625,5.1101923828124995L1.596588134765625,1.5596923828125L13.626888134765625,13.5899923828125L12.772788134765625,14.4440923828125Z" fill="#175BFF" fill-opacity="1" style="mix-blend-mode:passthrough"/></g><g><path d="M15.6276005859375,15.5907353515625C16.1172005859375,15.101135351562501,16.1172005859375,14.3082353515625,15.6276005859375,13.8195353515625L13.6368005859375,11.8287353515625L11.8656005859375,13.5999353515625L13.8564005859375,15.5907353515625C14.3460005859375,16.0803353515625,15.138900585937499,16.0803353515625,15.6276005859375,15.5907353515625Z" fill="#5A91FF" fill-opacity="1" style="mix-blend-mode:passthrough"/></g><g><path d="M11.600088017578125,15.616771406249999L15.450288017578124,11.76656140625C15.760788017578125,11.45606140625,15.760788017578125,10.95206640625,15.450288017578124,10.64156640625C15.139788017578125,10.33106610625,14.635788017578125,10.33106610625,14.325288017578124,10.64156640625L10.475093017578125,14.49176140625C10.164592717578126,14.80226140625,10.164592717578126,15.30626140625,10.475093017578125,15.61676140625C10.785446017578124,15.92816140625,11.289738017578125,15.92816140625,11.600088017578125,15.616771406249999Z" fill="#175BFE" fill-opacity="1" style="mix-blend-mode:passthrough"/></g><g><path d="M12.86548880859375,1.5596923828125L4.29299380859375,11.8079923828125C3.85469380859375,12.3326923828125,3.88889340859375,13.1057923828125,4.37309280859375,13.5899923828125L16.40337880859375,1.5596923828125L12.86548880859375,1.5596923828125Z" fill="#FECD00" fill-opacity="1" style="mix-blend-mode:passthrough"/></g><g><path d="M5.22720791015625,14.4440923828125L16.40340791015625,5.1101923828124995L16.40340791015625,1.5596923828125L4.37310791015625,13.5899923828125L5.22720791015625,14.4440923828125Z" fill="#FD722E" fill-opacity="1" style="mix-blend-mode:passthrough"/></g><g><path d="M2.37238798828125,15.5907353515625C1.88278798828125,15.101135351562501,1.88278798828125,14.3082353515625,2.37238798828125,13.8195353515625L4.3631879882812505,11.8287353515625L6.13438798828125,13.5999353515625L4.14358798828125,15.5907353515625C3.65398798828125,16.0803353515625,2.86108798828125,16.0803353515625,2.37238798828125,15.5907353515625Z" fill="#FF9D33" fill-opacity="1" style="mix-blend-mode:passthrough"/></g><g><path d="M6.447602265625,15.6231112109375L2.563197265625,11.7801112109375C2.252697265625,11.4696112109375,2.252697265625,10.9656162109375,2.563197265625,10.6551162109375C2.873697265625,10.3446159109375,3.377692265625,10.3446159109375,3.688192265625,10.6551162109375L7.572602265625,14.4981212109375C7.883092265625,14.808621210937499,7.883092265625,15.3126212109375,7.572602265625,15.6231212109375C7.262242265625,15.9345212109375,6.757952265625,15.9345212109375,6.447602265625,15.6231112109375Z" fill="#F38147" fill-opacity="1" style="mix-blend-mode:passthrough"/></g></g></svg>